HIERARCHY
ROOT Hips
{
	OFFSET -0.001795 -0.223333 0.028219
	CHANNELS 6 Xposition Yposition Zposition Zrotation Yrotation Xrotation 
	JOINT LeftUpLeg
	{
		OFFSET 0.069520 -0.091406 -0.006815
		CHANNELS 3 Zrotation Yrotation Xrotation
		JOINT LeftLeg
		{
			OFFSET 0.034277 -0.375199 -0.004496
			CHANNELS 3 Zrotation Yrotation Xrotation
			JOINT LeftFoot
			{
				OFFSET -0.013596 -0.397961 -0.043693
				CHANNELS 3 Zrotation Yrotation Xrotation
				JOINT LeftToe
				{
					OFFSET 0.026358 -0.055791 0.119288
					CHANNELS 3 Zrotation Yrotation Xrotation
					End Site
					{
						OFFSET 0.000000 0.000000 0.000000
					}
				}
			}
		}
	}
	JOINT RightUpLeg
	{
		OFFSET -0.067670 -0.090522 -0.004320
		CHANNELS 3 Zrotation Yrotation Xrotation
		JOINT RightLeg
		{
			OFFSET -0.038290 -0.382569 -0.008850
			CHANNELS 3 Zrotation Yrotation Xrotation
			JOINT RightFoot
			{
				OFFSET 0.015774 -0.398415 -0.042312
				CHANNELS 3 Zrotation Yrotation Xrotation
				JOINT RightToe
				{
					OFFSET -0.025372 -0.048144 0.123348
					CHANNELS 3 Zrotation Yrotation Xrotation
					End Site
					{
						OFFSET 0.000000 0.000000 0.000000
					}
				}
			}
		}
	}
	JOINT Spine
	{
		OFFSET -0.002533 0.108963 -0.026696
		CHANNELS 3 Zrotation Yrotation Xrotation
		JOINT Spine1
		{
			OFFSET 0.005487 0.135180 0.001092
			CHANNELS 3 Zrotation Yrotation Xrotation
			JOINT Spine2
			{
				OFFSET 0.001457 0.052922 0.025425
				CHANNELS 3 Zrotation Yrotation Xrotation
				JOINT Neck
				{
					OFFSET -0.002778 0.213870 -0.042857
					CHANNELS 3 Zrotation Yrotation Xrotation
					JOINT Head
					{
						OFFSET 0.005152 0.064970 0.051349
						CHANNELS 3 Zrotation Yrotation Xrotation
						End Site
						{
							OFFSET 0.000000 0.000000 0.000000
						}
					}
				}
				JOINT LeftShoulder
				{
					OFFSET 0.078845 0.121749 -0.034090
					CHANNELS 3 Zrotation Yrotation Xrotation
					JOINT LeftArm
					{
						OFFSET 0.090977 0.030469 -0.008868
						CHANNELS 3 Zrotation Yrotation Xrotation
						JOINT LeftForeArm
						{
							OFFSET 0.259612 -0.012772 -0.027456
							CHANNELS 3 Zrotation Yrotation Xrotation
							JOINT LeftHand
							{
								OFFSET 0.249234 0.008986 -0.001171
								CHANNELS 3 Zrotation Yrotation Xrotation
								End Site
								{
									OFFSET 0.000000 0.000000 0.000000
								}
							}
						}
					}
				}
				JOINT RightShoulder
				{
					OFFSET -0.081759 0.118833 -0.038615
					CHANNELS 3 Zrotation Yrotation Xrotation
					JOINT RightArm
					{
						OFFSET -0.096012 0.032551 -0.009143
						CHANNELS 3 Zrotation Yrotation Xrotation
						JOINT RightForeArm
						{
							OFFSET -0.253742 -0.013329 -0.021401
							CHANNELS 3 Zrotation Yrotation Xrotation
							JOINT RightHand
							{
								OFFSET -0.255298 0.007772 -0.005559
								CHANNELS 3 Zrotation Yrotation Xrotation
								End Site
								{
									OFFSET 0.000000 0.000000 0.000000
								}
							}
						}
					}
				}
			}
		}
	}
}
MOTION
Frames: 12
Frame Time: 0.050000
0.000000 0.903812 0.000000 0.559093 -1.037553 1.195448 5.458491 -1.102101 -24.726473 -1.298473 -0.180275 15.560985 -1.939416 1.080318 11.418205 0.000000 0.000000 0.000000 0.687370 -1.474211 13.918651 -5.697005 1.751325 12.427936 3.843680 13.398324 -3.897102 0.000000 0.000000 0.000000 -0.183975 -0.257864 6.764905 -2.061022 0.985305 0.634699 -2.717480 9.858003 7.860542 9.329240 -3.076083 -18.680296 0.000000 0.000000 0.000000 -28.846714 -6.623140 -2.621360 -46.452311 -2.408828 -3.573659 0.666793 -15.434350 0.276504 0.000000 0.000000 0.000000 21.151788 -2.502107 -0.602542 56.046190 7.217784 -2.870127 0.507273 27.833109 1.771858 0.000000 0.000000 0.000000 
0.018313 0.908519 0.044989 0.274046 0.027080 1.704477 3.560972 -1.465404 -23.248521 -0.126352 -0.564711 17.181439 -1.545564 0.311573 7.534397 0.000000 0.000000 0.000000 0.639868 -1.235381 11.432732 -6.733110 2.943800 21.799443 5.705773 14.080118 0.935991 0.000000 0.000000 0.000000 0.449859 -0.265303 5.799120 -1.899053 0.901528 0.642409 -3.646065 8.972447 8.921890 9.873890 -3.366155 -19.151179 0.000000 0.000000 0.000000 -28.031467 -6.658775 -2.310778 -46.327026 -4.053014 -3.126119 1.154590 -15.442907 0.223169 0.000000 0.000000 0.000000 22.364644 -4.022770 -1.513144 56.792911 6.265115 -3.499631 2.079393 27.401724 2.121970 0.000000 0.000000 0.000000 
0.036327 0.917922 0.090116 0.978203 -1.158402 0.942368 1.462657 -1.546506 -19.756369 -0.098552 -0.559756 18.264076 -0.732024 1.176706 6.204251 0.000000 0.000000 0.000000 -1.346793 -0.465206 5.809465 -6.049805 4.358167 35.678650 8.602951 12.930264 10.549288 0.000000 0.000000 0.000000 -1.064062 -0.167211 5.862306 -1.635615 0.787483 -0.670453 -3.260296 9.401478 11.474164 9.144718 -3.126335 -18.572749 0.000000 0.000000 0.000000 -27.236437 -7.904897 -1.165132 -45.989022 -6.335012 -2.552818 -0.038670 -15.600783 0.416368 0.000000 0.000000 0.000000 19.906544 -1.755179 -0.196549 58.720299 6.081693 -3.682720 1.476145 26.440597 1.876705 0.000000 0.000000 0.000000 
0.052670 0.925891 0.133468 0.870119 -1.598137 1.383613 0.666030 -1.284731 -15.144888 -0.640103 -0.301855 14.554176 -0.398847 1.220652 4.806684 0.000000 0.000000 0.000000 -0.842410 0.240426 -2.351610 -5.117822 5.697184 49.622234 9.138339 7.610856 20.198579 0.000000 0.000000 0.000000 -0.660987 -0.204994 6.290790 -1.800578 0.866161 -1.576979 -2.825332 7.844975 10.997679 8.657458 -3.042368 -18.539900 0.000000 0.000000 0.000000 -27.503905 -7.822233 -0.520613 -44.640550 -7.585230 -2.187722 -1.345130 -17.072412 0.691713 0.000000 0.000000 0.000000 19.228196 -2.857166 -1.305689 58.490187 3.564860 -4.758473 4.176402 26.131942 2.327640 0.000000 0.000000 0.000000 
0.066439 0.931318 0.175162 0.655494 -1.055146 0.488978 -0.509123 -0.871825 -9.169270 -0.024874 -0.344106 10.622009 -0.594158 0.331176 3.509059 0.000000 0.000000 0.000000 -0.337206 1.021342 -10.389223 -1.818829 4.489384 59.542455 6.062670 1.269366 22.943733 0.000000 0.000000 0.000000 -0.469193 -0.285730 8.131247 -0.463203 0.257169 -1.841507 -4.310840 5.319019 11.195449 9.697096 -3.823499 -19.208903 0.000000 0.000000 0.000000 -28.089445 -8.441877 0.667433 -41.082563 -10.198882 -1.423775 -1.366594 -19.260200 0.843305 0.000000 0.000000 0.000000 20.467144 -3.235782 -2.101714 57.318511 2.374069 -5.287552 4.196516 26.423402 2.242951 0.000000 0.000000 0.000000 
0.077666 0.935043 0.218096 0.070116 -1.277348 -0.329719 -0.545127 -0.359493 -3.772948 -0.272901 -0.206258 7.778311 -0.595717 -0.006615 2.754131 0.000000 0.000000 0.000000 0.853046 1.860320 -17.182447 0.377965 3.095463 61.215367 2.071196 -1.207820 12.293622 0.000000 0.000000 0.000000 1.073957 -0.480409 9.638904 0.132979 -0.006034 -2.358820 -5.351772 3.357375 11.568936 9.434010 -3.799856 -19.797755 0.000000 0.000000 0.000000 -27.127922 -9.347004 2.107475 -40.563093 -14.237212 -0.418675 0.288810 -20.489231 0.662824 0.000000 0.000000 0.000000 20.758904 -3.141776 -2.572089 57.616733 0.851170 -6.013028 4.285899 26.790169 2.193274 0.000000 0.000000 0.000000 
0.086494 0.936588 0.263032 -0.679216 -0.997299 -0.882745 -0.776356 0.128043 1.228372 0.594572 -0.270193 5.249121 -0.760657 -0.603798 2.147369 0.000000 0.000000 0.000000 1.789730 2.664409 -22.783557 2.531619 1.125989 54.940825 -0.619571 -2.185975 1.258711 0.000000 0.000000 0.000000 2.011836 -0.585419 9.980663 1.771496 -0.787874 -1.527270 -6.485410 1.912306 10.412717 9.909713 -4.304136 -19.086140 0.000000 0.000000 0.000000 -25.544613 -10.010064 2.926683 -40.115676 -16.601308 0.273568 2.001033 -22.558940 0.419242 0.000000 0.000000 0.000000 21.197499 -3.701709 -3.257743 57.192907 -1.391452 -6.877478 5.230416 27.275486 2.363133 0.000000 0.000000 0.000000 
0.092825 0.933004 0.309944 -1.039367 -1.271816 -1.374884 -1.420831 0.602752 5.623176 1.647250 -0.378276 4.015477 -0.429365 -0.524771 0.842879 0.000000 0.000000 0.000000 2.479935 3.256531 -26.203314 3.725166 0.103394 39.578338 -0.724738 -2.765724 1.946007 0.000000 0.000000 0.000000 2.410367 -0.634573 10.275686 2.653120 -1.167136 -2.201483 -6.592881 0.597556 11.019739 9.781501 -4.289789 -19.841488 0.000000 0.000000 0.000000 -23.923775 -10.337758 3.713091 -40.597921 -19.003153 0.826639 4.002715 -25.382403 0.106676 0.000000 0.000000 0.000000 20.604710 -4.173097 -3.826945 58.680176 -2.933585 -7.815489 3.833688 27.629069 2.005710 0.000000 0.000000 0.000000 
0.096752 0.925553 0.358901 -1.332865 -1.998371 -1.382970 -1.985982 1.124347 9.894335 2.537337 -0.421839 2.398334 0.124851 0.013901 -0.568881 0.000000 0.000000 0.000000 3.968773 3.791952 -27.383998 3.389545 -0.021753 22.026363 1.507957 -1.759051 10.632567 0.000000 0.000000 0.000000 2.698386 -0.633577 9.914436 3.123066 -1.369064 -2.534899 -6.228668 -0.108851 10.923138 9.438071 -4.157917 -20.154414 0.000000 0.000000 0.000000 -22.007208 -10.005845 3.886734 -41.300485 -21.418250 1.559116 5.368537 -27.149183 -0.137468 0.000000 0.000000 0.000000 20.634219 -4.986385 -4.595160 58.678486 -4.562033 -8.560152 3.967300 27.447765 1.938698 0.000000 0.000000 0.000000 
0.098638 0.915871 0.410890 -1.461737 -1.733679 -0.940723 -1.871881 1.518175 13.454869 2.514305 -0.397866 2.045968 0.280801 -0.669364 -2.752649 0.000000 0.000000 0.000000 5.173366 4.140240 -27.987530 2.375075 0.042547 13.324067 3.253170 -1.316367 17.468927 0.000000 0.000000 0.000000 2.797611 -0.568014 8.614853 3.745970 -1.656207 -2.396590 -5.784142 -1.624217 11.226170 9.451259 -4.087543 -21.744080 0.000000 0.000000 0.000000 -21.087462 -10.387338 4.573185 -41.948625 -22.694884 1.883809 6.909058 -27.993922 -0.408383 0.000000 0.000000 0.000000 20.574392 -4.561188 -4.740030 58.998439 -4.968144 -8.792225 2.391126 27.018517 1.457719 0.000000 0.000000 0.000000 
0.098907 0.908540 0.467805 -1.129443 -1.874370 -0.030939 -1.847522 1.780550 15.641475 2.149359 -0.438518 3.764142 -0.474000 -2.278910 -2.521018 0.000000 0.000000 0.000000 5.724113 4.346277 -28.494013 1.893862 0.190020 14.526807 3.096318 -1.266805 16.596700 0.000000 0.000000 0.000000 2.995382 -0.444161 6.337947 4.717228 -2.057438 -2.874496 -6.613275 -3.111062 11.841792 9.069873 -4.112540 -21.540497 0.000000 0.000000 0.000000 -20.863000 -8.723556 4.105260 -43.584719 -22.271670 1.703591 6.761416 -29.390365 -0.255265 0.000000 0.000000 0.000000 21.795801 -3.364811 -4.704252 58.251746 -4.511151 -8.419400 -0.055601 25.440196 0.773378 0.000000 0.000000 0.000000 
0.096864 0.905744 0.530160 -1.155184 -2.049700 1.085296 -0.741921 1.521112 14.666695 1.185754 -0.596251 10.960692 -2.762674 -5.376961 1.081181 0.000000 0.000000 0.000000 6.967541 4.783008 -29.347974 0.213131 0.908969 21.261865 2.889804 0.369882 11.955428 0.000000 0.000000 0.000000 4.107142 -0.283717 3.078196 4.872293 -2.191459 -1.872306 -6.794040 -2.485134 10.254814 8.040897 -3.553384 -20.264634 0.000000 0.000000 0.000000 -22.442090 -7.928043 3.422996 -43.683946 -19.374010 0.853210 3.427604 -30.464509 0.547782 0.000000 0.000000 0.000000 21.462975 -4.602956 -5.195621 58.514113 -4.591743 -8.367423 -0.334027 23.397934 0.673218 0.000000 0.000000 0.000000 
